<svg width="120" height="80" viewBox="0 0 120 80" fill="none" xmlns="http://www.w3.org/2000/svg">
<path d="M23 20.1672C23 15.1043 27.1044 11 32.1675 11H87.1725C92.2356 11 96.34 15.1043 96.34 20.1672V60.5028C96.34 65.5657 92.2356 69.67 87.1725 69.67H32.1675C27.1044 69.67 23 65.5657 23 60.5028V20.1672ZM26.667 20.1672V60.5028C26.667 63.5405 29.1297 66.0031 32.1675 66.0031H87.1725C90.2103 66.0031 92.673 63.5405 92.673 60.5028V20.1672C92.673 17.1294 90.2103 14.6669 87.1725 14.6669H32.1675C29.1297 14.6669 26.667 17.1294 26.667 20.1672ZM74.338 22.0006H81.672C83.6972 22.0006 85.339 23.6423 85.339 25.6675V33.0012C85.339 35.0264 83.6972 36.6681 81.672 36.6681H74.338C72.3128 36.6681 70.671 35.0264 70.671 33.0012V25.6675C70.671 23.6423 72.3128 22.0006 74.338 22.0006ZM74.338 25.6675V33.0012H81.672V25.6675H74.338ZM26.13 54.4655C25.414 55.1815 24.253 55.1815 23.537 54.4655C22.821 53.7495 22.821 52.5886 23.537 51.8726L41.872 33.5382C42.588 32.8222 43.749 32.8222 44.465 33.5382L65.1705 54.2431L74.875 44.5389C75.591 43.8229 76.752 43.8229 77.468 44.5389L93.9695 61.0398C94.6855 61.7558 94.6855 62.9167 93.9695 63.6327C93.2535 64.3487 92.0925 64.3487 91.3765 63.6327L76.1715 48.4282L66.467 58.1324C65.751 58.8484 64.59 58.8484 63.874 58.1324L43.1685 37.4276L26.13 54.4655Z" fill="#a09fa1"/>
</svg>
